<svg width="32" height="32" viewBox="0 0 32 32" fill="none" xmlns="http://www.w3.org/2000/svg">
  <circle cx="16" cy="16" r="15" fill="#059669"/>
  <path d="M10 12C10 9 12 7 15 7C18 7 20 9 20 12C20 15 18 17 15 17C12 17 10 15 10 12Z" fill="#34D399"/>
  <path d="M12 15C12 12 15 10 17 10C20 10 22 12 22 15C22 18 20 20 17 20C15 20 12 18 12 15Z" fill="#6EE7B7"/>
  <path d="M16 20C16 20 12 16 12 13C12 11 13 10 15 10C15.5 10 16 10.5 16 11C16 10.5 16.5 10 17 10C19 10 20 11 20 13C20 16 16 20 16 20Z" fill="#F472B6"/>
</svg>